#N canvas 658 236 537 328 10;
#X obj 160 112 f 0;
#X obj 198 111 + 1;
#X obj 206 142 mod;
#X obj 159 74 b;
#X obj 252 94 f \$1;
#X obj 252 71 loadbang;
#X obj 240 121 + 1;
#X obj 133 206 outlet;
#X text 331 121 first bang outputs 0 \, subsequent bangs output next
number up to creation arg;
#X obj 254 36 inlet n;
#X obj 157 37 inlet count;
#X text 145 12 bang to count up;
#X text 254 14 value to count to \, zero based;
#X obj 240 262 outlet flip;
#X text 249 286 bangs when count resets;
#X obj 216 177 == 0;
#X obj 216 204 spigot;
#X obj 226 231 b;
#X connect 0 0 1 0;
#X connect 0 0 7 0;
#X connect 1 0 2 0;
#X connect 2 0 0 1;
#X connect 2 0 15 0;
#X connect 3 0 0 0;
#X connect 4 0 6 0;
#X connect 5 0 4 0;
#X connect 6 0 2 1;
#X connect 9 0 2 1;
#X connect 10 0 3 0;
#X connect 15 0 16 0;
#X connect 15 0 16 1;
#X connect 16 0 17 0;
#X connect 17 0 13 0;
