#N canvas 637 278 582 368 10;
#X obj 99 -10 inlet list;
#X obj 155 244 outlet item;
#X obj 149 157 list split;
#X obj 155 196 list split 1;
#X obj 159 52 list length;
#X text 85 -36 return next item of list \, iterator style;
#X obj 367 54 + 1;
#X obj 307 29 b;
#X obj 244 107 mod;
#X obj 318 55 f 0;
#X obj 252 133 + 0;
#X obj 109 14 t l b l;
#X text 20 264 todo: shift counter by difference between new and old
list lenghts? want a musical way of transtioning lengths;
#X connect 0 0 11 0;
#X connect 2 1 3 0;
#X connect 3 0 1 0;
#X connect 4 0 8 1;
#X connect 6 0 9 1;
#X connect 7 0 9 0;
#X connect 8 0 10 0;
#X connect 9 0 6 0;
#X connect 9 0 8 0;
#X connect 10 0 2 1;
#X connect 11 0 2 0;
#X connect 11 1 7 0;
#X connect 11 2 4 0;
