#N canvas 982 22 651 504 10;
#X msg 111 39 22 11 12 13 14.567;
#X obj 108 121 list split 1;
#X obj 115 186 list;
#X obj 88 150 sel 22;
#X obj 121 224 print;
#X msg 128 66 11 0 0 0 0 0;
#X msg 144 89 22 1 4;
#X obj 396 143 route 22;
#X msg 381 46 22 11 12 13 14.567;
#X msg 398 73 11 0 0 0 0 0;
#X msg 414 96 22 1 4;
#X obj 394 196 print;
#X obj 482 116 nbx 5 14 -1e+037 1e+037 0 0 empty empty empty 0 -8 0
10 -262144 -1 -1 22 256;
#X text 58 7 workaround for bug in pd-extended 0.42;
#X text 378 10 route works in 0.43;
#X connect 0 0 1 0;
#X connect 1 0 3 0;
#X connect 1 1 2 1;
#X connect 2 0 4 0;
#X connect 3 0 2 0;
#X connect 5 0 1 0;
#X connect 6 0 1 0;
#X connect 7 0 11 0;
#X connect 8 0 7 0;
#X connect 9 0 7 0;
#X connect 10 0 7 0;
#X connect 12 0 7 1;
