#N canvas 114 170 601 484 10;
#X obj 143 421 outlet pos;
#X obj 76 33 notein;
#X obj 77 62 spigot;
#X obj 177 33 inlet note;
#X text 343 38 create a trigger pulse on midi note;
#X obj 181 336 tgl 15 0 empty empty empty 17 7 0 10 -262144 -1 -1 0
1;
#X obj 242 308 bng 15 250 50 0 empty empty empty 17 7 0 10 -262144
-1 -1;
#X obj 145 258 sel \$1;
#X obj 130 333 f 1;
#X obj 250 32 inlet toggle;
#X text 17 80 filter note offs;
#X obj 52 163 print;
#X obj 245 242 f 0;
#X obj 243 211 loadbang;
#X obj 146 295 demux;
#X obj 133 374 blip 50 0;
#X text 341 55 optionally latching/toggling. Default delay is 450ms.
;
#X connect 1 0 2 0;
#X connect 1 0 11 0;
#X connect 1 1 2 1;
#X connect 2 0 7 0;
#X connect 3 0 7 1;
#X connect 5 0 0 0;
#X connect 7 0 14 0;
#X connect 8 0 15 0;
#X connect 9 0 14 1;
#X connect 12 0 14 1;
#X connect 13 0 12 0;
#X connect 14 0 8 0;
#X connect 14 0 6 0;
#X connect 14 1 5 0;
#X connect 15 0 0 0;
