#N canvas 0 0 450 300 10;
#X obj 56 19 inlet;
#X obj 18 113 moses \$1;
#X obj 76 160 outlet;
#X obj 103 55 loadbang;
#X obj 103 83 expr \$2+1;
#X obj 76 113 moses;
#X text 182 21 pass values between first and second creation args \,
inclusive.;
#X connect 0 0 1 0;
#X connect 1 1 5 0;
#X connect 3 0 4 0;
#X connect 4 0 5 1;
#X connect 5 0 2 0;
