#N canvas 0 0 598 455 10;
#N canvas 0 0 656 534 !contains 0;
#X obj 208 1 inlet list;
#X obj 394 49 inlet value;
#X obj 200 160 !=;
#X obj 230 161 !=;
#X obj 259 161 !=;
#X obj 289 162 !=;
#X obj 200 198 &&;
#X obj 239 196 &&;
#X obj 199 227 &&;
#X obj 201 91 unpack f f f f f;
#X obj 319 161 !=;
#X obj 199 260 &&;
#X obj 394 127 nop;
#X obj 199 292 outlet result;
#X text 436 76 force re-evaluation with list changes;
#X msg 94 89 0 0 0 0 0;
#X obj 213 26 t b a;
#X obj 90 13 loadbang;
#X obj 94 60 route bang;
#X connect 0 0 16 0;
#X connect 1 0 12 0;
#X connect 2 0 6 1;
#X connect 3 0 6 0;
#X connect 4 0 7 1;
#X connect 5 0 7 0;
#X connect 6 0 8 1;
#X connect 7 0 8 0;
#X connect 8 0 11 1;
#X connect 9 0 2 1;
#X connect 9 1 3 1;
#X connect 9 2 4 1;
#X connect 9 3 5 1;
#X connect 9 4 10 1;
#X connect 10 0 11 0;
#X connect 11 0 13 0;
#X connect 12 0 2 0;
#X connect 12 0 3 0;
#X connect 12 0 4 0;
#X connect 12 0 5 0;
#X connect 12 0 10 0;
#X connect 15 0 9 0;
#X connect 16 0 12 0;
#X connect 16 1 18 0;
#X connect 17 0 18 0;
#X connect 18 0 15 0;
#X connect 18 1 9 0;
#X restore 182 -23 pd !contains;
#X obj 253 -145 nbx 5 14 -1e+37 1e+37 0 0 empty empty empty 0 -8 0
10 -262144 -1 -1 0 256;
#X obj 266 -177 bng 15 250 50 0 empty empty empty 17 7 0 10 -262144
-1 -1;
#X obj 162 49 spigot;
#N canvas 106 229 480 361 datalist 0;
#X obj 211 162 t l;
#X obj 149 160 list;
#X obj 149 320 outlet;
#X obj 157 26 inlet item;
#X obj 249 27 inlet clear;
#X obj 226 88 b;
#X text 491 181 list length;
#X text 326 44 fixed-length list \, first in is evicted when length
is exceeded.;
#X obj 222 230 nop;
#X text 27 24 it's possible to exceed length by passing list in;
#X obj 149 280 list split 5;
#X obj 232 199 list split 5;
#X connect 0 0 11 0;
#X connect 1 0 0 0;
#X connect 1 0 10 0;
#X connect 3 0 1 0;
#X connect 4 0 5 0;
#X connect 5 0 1 1;
#X connect 8 0 1 1;
#X connect 10 0 2 0;
#X connect 10 2 2 0;
#X connect 11 0 8 0;
#X connect 11 2 8 0;
#X restore 99 -22 pd datalist;
#X obj 210 9 tgl 15 0 empty empty empty 17 7 0 10 -262144 -1 -1 0 1
;
#X obj 246 -91 nop;
#X obj 200 -207 inlet item;
#X obj 271 -208 inlet clear;
#X obj 37 172 outlet;
#X obj 391 -210 inlet list;
#X text 374 -72 set data type for pd currently has some bugs \, Can't
add 0 value to the set.;
#X obj 377 -151 b;
#X connect 0 0 5 0;
#X connect 1 0 6 0;
#X connect 2 0 1 0;
#X connect 3 0 4 0;
#X connect 4 0 0 0;
#X connect 4 0 9 0;
#X connect 5 0 3 1;
#X connect 6 0 0 1;
#X connect 6 0 3 0;
#X connect 7 0 6 0;
#X connect 8 0 4 1;
#X connect 8 0 0 0;
#X connect 10 0 12 0;
#X connect 12 0 4 0;
