#N canvas 516 88 450 300 10;
#X obj 122 168 spigot;
#X obj 172 168 spigot;
#X obj 202 108 != 1;
#X obj 101 51 inlet signal;
#X obj 308 50 inlet control;
#X text 100 22 send 0 or 1 to control to route signal;
#X obj 153 252 outlet one;
#X obj 182 51 inlet signal2;
#X connect 0 0 6 0;
#X connect 1 0 6 0;
#X connect 2 0 0 1;
#X connect 3 0 0 0;
#X connect 4 0 2 0;
#X connect 4 0 1 1;
#X connect 7 0 1 0;
