#N canvas 690 382 450 300 10;
#X obj 190 160 spigot;
#X obj 240 160 spigot;
#X obj 170 43 inlet signal;
#X obj 255 42 inlet control;
#X text 168 14 send 0 or 1 to control to route signal;
#X obj 183 242 outlet one;
#X obj 255 240 outlet two;
#X obj 311 160 spigot;
#X obj 326 240 outlet two;
#X obj 231 99 == 0;
#X obj 268 98 == 1;
#X obj 300 98 > 1;
#X connect 0 0 5 0;
#X connect 1 0 6 0;
#X connect 2 0 0 0;
#X connect 2 0 1 0;
#X connect 2 0 7 0;
#X connect 3 0 9 0;
#X connect 3 0 10 0;
#X connect 3 0 11 0;
#X connect 7 0 8 0;
#X connect 9 0 0 1;
#X connect 10 0 1 1;
#X connect 11 0 7 1;
